<?xml version="1.0" standalone="no"?>
<!DOCTYPE svg PUBLIC "-//W3C//DTD SVG 20010904//EN"
 "http://www.w3.org/TR/2001/REC-SVG-20010904/DTD/svg10.dtd">
<svg version="1.0" xmlns="http://www.w3.org/2000/svg"
 width="50.000000pt" height="44.000000pt" viewBox="0 0 50.000000 44.000000"
 preserveAspectRatio="xMidYMid meet">
<metadata>
Created by potrace 1.16, written by Peter Selinger 2001-2019
</metadata>
<g transform="translate(0.000000,44.000000) scale(0.100000,-0.100000)"
fill="#000000" stroke="none">
<path d="M114 296 c-17 -18 10 -80 31 -72 10 3 15 -1 15 -12 0 -10 5 -23 12
-30 6 -6 8 -15 4 -19 -4 -4 -12 -1 -17 7 -9 12 -10 12 -5 -3 3 -10 6 -21 6
-23 0 -3 4 -3 9 0 5 3 8 0 7 -7 0 -6 4 -14 9 -17 6 -3 10 7 10 22 1 16 6 33
12 39 21 21 37 -31 24 -77 l-10 -39 19 25 c11 14 20 28 20 33 0 16 17 6 30
-18 26 -48 100 -20 100 39 0 42 -29 72 -83 86 -23 6 -55 15 -71 20 -15 6 -38
7 -50 4 -17 -4 -24 1 -33 26 -12 32 -22 36 -39 16z"/>
</g>
</svg>
